<?xml version="1.0" encoding="utf-8"?>
<!-- Generator: Adobe Illustrator 27.1.1, SVG Export Plug-In . SVG Version: 6.00 Build 0)  -->
<svg version="1.1" id="Layer_1" xmlns="http://www.w3.org/2000/svg" xmlns:xlink="http://www.w3.org/1999/xlink" x="0px" y="0px"
	 viewBox="0 0 1097 800" style="enable-background:new 0 0 1097 800;" xml:space="preserve">
<style type="text/css">
	.st0{fill:#EBE6DA;}
	.st1{fill:#A5724A;}
	.st2{fill:#73796D;}
	.st3{fill:#494E4F;}
	.st4{fill:#F3EBDD;}
	.st5{fill:#515455;}
	.st6{fill:#323639;}
	.st7{fill:#E4C2AC;}
	.st8{fill:#57B781;}
	.st9{fill:#FFFFFF;}
	.st10{font-family:'Arial-BoldMT';}
	.st11{font-size:18px;}
	.st12{font-family:'ArialMT';}
	.st13{fill:#F1604B;}
	.st14{font-size:30px;}
	.st15{font-size:24px;}
</style>
<rect y="0" class="st0" width="1097" height="800"/>
<polygon class="st1" points="374.7,244.3 383.9,242.8 381.8,139.8 372.7,141.3 "/>
<rect x="699.1" y="161.9" class="st1" width="9.1" height="93.9"/>
<polygon id="Split_Road" class="st2" points="268.3,903.3 758.4,903.3 654.2,430.4 1096.7,243.6 1096.7,61.6 525.7,302.9 0,65.2 
	-0.3,220.3 389.5,426 "/>
<g id="Man">
	<path class="st3" d="M501.9,404.2c0,24.7-23.5,44.7-52.5,44.7c-29,0-52.5-20-52.5-44.7c0-24.7,23.5-44.7,52.5-44.7
		C478.4,359.4,501.9,379.5,501.9,404.2z"/>
	<polygon class="st3" points="478.7,424.1 498.3,405.5 504.5,431.8 510.8,458.1 484.9,450.3 459,442.6 	"/>
	<g>
		<path class="st4" d="M445.8,412.3l-0.1-1.5c-0.3-3,0.7-6.3,3.4-9.7c2.5-3,3.9-5.1,3.9-7.7c0-2.9-1.8-4.8-5.2-4.8
			c-2,0-4.2,0.7-5.6,1.7l-1.3-3.5c1.8-1.3,5-2.2,7.9-2.2c6.3,0,9.2,4,9.2,8.2c0,3.8-2.1,6.5-4.7,9.7c-2.4,2.9-3.3,5.4-3.1,8.2
			l0.1,1.5H445.8z M444.6,420.2c0-2.1,1.4-3.5,3.3-3.5c1.9,0,3.2,1.5,3.2,3.5c0,2-1.3,3.5-3.3,3.5
			C445.9,423.6,444.6,422.1,444.6,420.2z"/>
	</g>
	<g>
		<path class="st4" d="M467.1,412.3l0.6-1.3c1.1-2.8,3.5-5.3,7.6-6.9c3.6-1.5,5.8-2.7,7-5c1.3-2.5,0.7-5-2.4-6.7
			c-1.8-0.9-4-1.4-5.7-1.1l0.5-3.7c2.2-0.3,5.4,0.3,8,1.7c5.6,3,6.3,7.8,4.3,11.6c-1.8,3.4-4.9,4.8-8.7,6.4
			c-3.5,1.4-5.4,3.2-6.6,5.8l-0.6,1.3L467.1,412.3z M462.4,418.6c1-1.8,2.9-2.5,4.6-1.6c1.7,0.9,2.2,2.8,1.2,4.6
			c-0.9,1.7-2.7,2.5-4.5,1.5C461.9,422.3,461.4,420.4,462.4,418.6z"/>
	</g>
	<g>
		<path class="st4" d="M427.9,414.4l-0.8-1.2c-1.8-2.5-2.5-5.8-1.8-10.1c0.7-3.8,0.8-6.4-0.4-8.6c-1.4-2.5-3.9-3.3-6.9-1.6
			c-1.7,1-3.3,2.6-4,4.2l-2.9-2.4c0.9-2.1,3.2-4.4,5.8-5.8c5.5-3.1,10-1.1,12,2.6c1.9,3.3,1.4,6.7,0.7,10.8
			c-0.7,3.7-0.2,6.3,1.3,8.7l0.8,1.2L427.9,414.4z M430.7,421.8c-1-1.8-0.5-3.7,1.1-4.7c1.7-0.9,3.5-0.3,4.6,1.5
			c1,1.7,0.6,3.6-1.2,4.6C433.6,424.2,431.7,423.5,430.7,421.8z"/>
	</g>
	<path class="st5" d="M614.4,696.1c0,5.1-25.1,9.3-56.1,9.3c-31,0-56.1-4.1-56.1-9.3c0-5.1,25.1-9.3,56.1-9.3
		C589.3,686.8,614.4,691,614.4,696.1z"/>
	<g>
		<path class="st6" d="M573.9,701c0,0,16.6-36.2,32.6-7.7C606.5,693.2,580.4,705.6,573.9,701z"/>
	</g>
	<polygon class="st6" points="496.6,538.9 491.9,630.9 596.5,630.9 593.2,538.9 	"/>
	<path class="st7" d="M606.1,538.9h-95.9v-26.6c0,0-24.5-14,0-28.8l1.3-22.1h94.6l1.5,19.7c0,0,25.6,20.9,0,31.1l-1.1,24.9
		L606.1,538.9z"/>
	<path class="st6" d="M520,452c0,0,61.6-49.5,81.7,8.8l-16,1.9c0,0,17.6,17.1,10.2,22.5c0,0-18.8,17.9-9.3,32.4
		c0,0-74.1,40-87.8-10.7C499,506.9,485.6,429.5,520,452z"/>
	<polygon class="st6" points="606.5,642.9 554.2,646.9 501.9,642.9 501.9,630.9 606.5,630.9 	"/>
	<rect x="511.1" y="633" class="st6" width="13.5" height="68.4"/>
	<rect x="563.9" y="633" class="st6" width="13.5" height="68.4"/>
	<g>
		<path class="st7" d="M608.7,604.6c0.7,0,1.3-0.8,1.2-1.6l0,0c-0.1-0.9-0.7-1.5-1.4-1.5l-8.7,0.6c-0.7,0-1.3,0.8-1.2,1.6l0,0
			c0.1,0.9,0.7,1.5,1.4,1.5L608.7,604.6z"/>
		<path class="st7" d="M610.1,607.9c0.7,0,1.2-1,1.1-2.1l0,0c-0.1-1.1-0.7-2-1.4-1.9l-8.1,0.5c-0.7,0-1.2,1-1.1,2.1l0,0
			c0.1,1.1,0.7,2,1.4,1.9L610.1,607.9z"/>
		<path class="st7" d="M610.6,610.7c0.7,0,1.2-1,1.1-2.1l0,0c-0.1-1.1-0.7-2-1.4-1.9l-8.1,0.5c-0.7,0-1.2,1-1.1,2.1l0,0
			c0.1,1.1,0.7,2,1.4,1.9L610.6,610.7z"/>
		<path class="st7" d="M611.9,610.5c0.6-0.4,0.4-1.6-0.4-2.7l0,0c-0.8-1.1-1.9-1.7-2.5-1.3l-6.6,4.7c-0.6,0.4-0.4,1.6,0.4,2.7l0,0
			c0.8,1.1,1.9,1.7,2.5,1.3L611.9,610.5z"/>
	</g>
	<g>
		<path class="st6" d="M519.9,699.6c0,0,21.6-33.5,33.3-3C553.3,696.6,525.7,705.1,519.9,699.6z"/>
	</g>
	<path class="st6" d="M588.7,538.9c0,0,80.7,28.9,6.7,76.8l-1.3-15.5c0,0,31.2-18.3-3.2-37.2L588.7,538.9z"/>
	<path class="st6" d="M506.6,580.5c0,0-103.2-81.8-9.2-107l0.8,22.9c0,0-43.6,16.1,8.4,56.6V580.5z"/>
	<path class="st7" d="M507.4,476c0,0,21.1-13.8,18,7.7c0,0-0.8,5-5,0c0,0-6.5,3.1,1.2,5c0,0,8.8,1.9,1.2,3.5c0,0-14.6,2.7-15.3,0
		V476z"/>
</g>
<polygon id="Left_Red_Sign" class="st8" points="288.1,147.7 259.1,102.3 310.5,60.4 494.7,52.3 487.2,173.1 "/>
<text transform="matrix(0.9999 1.117000e-02 -1.117000e-02 0.9999 302.6208 99.1529)"><tspan x="0" y="0" class="st9 st10 st11">TO USE</tspan><tspan x="67" y="0" class="st9 st12 st11"> the $8 Million </tspan><tspan x="29.5" y="24" class="st9 st12 st11">for Marketplace</tspan></text>
<polygon id="Right_Green_Sign" class="st13" points="777.7,72.9 808.6,117.1 758.8,161 575.1,176.5 577.9,55.5 "/>
<text transform="matrix(0.9999 1.117000e-02 -1.117000e-02 0.9999 615.2073 95.4653)"><tspan x="0" y="0" class="st9 st10 st11">NOT </tspan><tspan x="43" y="0" class="st9 st12 st11">to use the </tspan><tspan x="10" y="24" class="st9 st12 st11">$8 Million for </tspan><tspan x="14.5" y="48" class="st9 st12 st11">Marketplace</tspan></text>
<text transform="matrix(1 0 0 1 510.2349 122.7812)" class="st10 st14">OR</text>
<text transform="matrix(1 0 0 1 513.597 596.1813)" class="st9 st10 st15">Xaxis</text>
</svg>
